<svg
    width="200"
    height="200"
    viewBox="0 0 24 24"
    fill="none"
    xmlns="http://www.w3.org/2000/svg"
>
    <!-- Background with rounded corners -->
    <rect width="24" height="24" rx="5" fill="url(#gradient)" />

    <!-- Paper sheet with folded corner -->
    <path
        d="M6 4c0-1.1.9-2 2-2h6.5L20 7.5V20c0 1.1-.9 2-2 2H8c-1.1 0-2-.9-2-2V4z"
        fill="white"
    />
    <path
        d="M14 2v5h5"
        fill="none"
        stroke="#ccc"
        stroke-width="1.5"
        stroke-linecap="round"
        stroke-linejoin="round"
    />

    <!-- Checklist Items -->
    <rect x="7" y="9" width="2" height="2" rx="0.5" fill="#007AFF" />
    <line
        x1="11"
        y1="10"
        x2="17"
        y2="10"
        stroke="#333"
        stroke-width="1.5"
        stroke-linecap="round"
    />

    <rect x="7" y="13" width="2" height="2" rx="0.5" fill="#007AFF" />
    <line
        x1="11"
        y1="14"
        x2="17"
        y2="14"
        stroke="#333"
        stroke-width="1.5"
        stroke-linecap="round"
    />

    <rect x="7" y="17" width="2" height="2" rx="0.5" fill="#007AFF" />
    <line
        x1="11"
        y1="18"
        x2="17"
        y2="18"
        stroke="#333"
        stroke-width="1.5"
        stroke-linecap="round"
    />

    <!-- Gradient Background -->
    <defs>
        <linearGradient id="gradient" x1="0" y1="0" x2="1" y2="1">
            <stop offset="0%" stop-color="#60A5FA" />
            <stop offset="100%" stop-color="#2563EB" />
        </linearGradient>
    </defs>
</svg>
